<?xml version="1.0" encoding="utf-8"?>
<!-- Generator: Adobe Illustrator 16.0.0, SVG Export Plug-In . SVG Version: 6.00 Build 0)  -->
<!DOCTYPE svg PUBLIC "-//W3C//DTD SVG 1.1//EN" "http://www.w3.org/Graphics/SVG/1.1/DTD/svg11.dtd">
<svg version="1.1" id="Layer_1" xmlns="http://www.w3.org/2000/svg" xmlns:xlink="http://www.w3.org/1999/xlink" x="0px" y="0px"
	 width="595.28px" height="595.234px" viewBox="0 0 595.28 595.234" enable-background="new 0 0 595.28 595.234"
	 xml:space="preserve">
<g>
	<path fill-rule="evenodd" clip-rule="evenodd" d="M217.285,279.595c0,19.783,0,39.326,0,59.06c-8.063,0-16.034,0-24.338,0
		c0-0.835,0-1.733,0-2.631c0-17.917,0.014-35.834-0.033-53.748c-0.002-1.045,0.786-2.565-1.136-3.02
		c-0.171-0.042-0.217-0.847-0.222-1.298c-0.022-2.179-0.009-4.353-0.009-6.785c1.353,0,2.627,0,4.205,0
		c0-3.643,0.011-7.042-0.002-10.441c-0.013-3.657,0.977-7.757-0.357-10.852c-1.374-3.185-4.995-5.413-7.679-8.008
		c-11.26-10.881-22.519-21.758-33.83-32.583c-1.584-1.517-2.541-3.1-3.098-5.309c-3.346-13.242-6.932-26.421-10.435-39.622
		c-1.926-7.253-3.844-14.507-5.818-21.953c2.245-0.588,4.309-1.126,6.781-1.772c-0.249,3.791,2.72,4.368,5.116,5.5
		c16.57,7.834,33.149,15.651,49.723,23.474c0.555,0.262,1.103,0.539,1.899,0.931c-0.925,2.001-1.819,3.932-2.831,6.12
		c-16.898-7.97-33.692-15.889-50.89-24c1.939,7.29,3.776,14.16,5.596,21.034c2.42,9.151,4.775,18.323,7.299,27.446
		c0.409,1.479,1.297,3.016,2.392,4.084c13.836,13.48,27.74,26.892,41.667,40.275c1.098,1.056,1.544,2.107,1.528,3.628
		c-0.075,7.226-0.035,14.451-0.035,21.804c9.517,0,18.831,0,28.494,0c0-0.797,0-1.616,0-2.437c0-14.331,0.016-28.664-0.027-42.995
		c-0.004-1.031-0.155-2.241-0.697-3.061c-7.61-11.472-15.3-22.892-22.973-34.322c-0.166-0.246-0.375-0.462-0.706-0.87
		c-7.353,5.464-14.639,10.875-22.188,16.484c3.686,5.175,7.311,10.264,11.034,15.491c-0.874,0.627-1.613,1.159-2.532,1.818
		c-2.484-3.45-4.921-6.827-7.353-10.211c-1.859-2.588-3.636-5.239-5.589-7.755c-1.05-1.353-0.726-2.039,0.544-2.97
		c7.153-5.245,14.264-10.55,21.353-15.885c1.824-1.374,3.528-2.914,5.258-4.407c1.509-1.298,2.796-1.615,3.675,0.644
		c0.098,0.251,0.373,0.434,0.852,0.968c2.547-16.401,5.037-32.453,7.522-48.465c2.778-0.224,4.482,0.455,6.11,2.885
		c8.369,12.464,17.056,24.713,25.636,37.035c0.437,0.628,0.907,1.235,1.522,2.068c2.188-2.992,4.287-5.855,6.602-9.015
		c2.866,1.871,5.682,3.71,8.5,5.55c0.125-0.061,0.251-0.121,0.378-0.182c-11.795-25.405-23.593-50.809-35.39-76.216
		c21.26-24.285,42.534-48.591,63.684-72.75c3.191-0.008,4.449,2.41,6.101,4.257c19.738,22.047,39.447,44.12,59.23,66.128
		c1.758,1.956,1.603,3.803,0.644,5.868c-11.085,23.88-22.184,47.753-33.272,71.631c-0.313,0.675-0.572,1.374-1.114,2.679
		c3.267-2.352,6.005-4.321,8.91-6.413c2.142,2.937,4.232,5.806,6.484,8.895c0.588-0.775,1.103-1.402,1.559-2.069
		c8.198-11.922,16.423-23.826,24.554-35.795c1.671-2.463,3.031-5.087,7.207-3.905c2.42,15.497,4.907,31.409,7.446,47.654
		c0.619-0.754,1.073-1.312,1.874-2.288c2,1.369,4.104,2.732,6.115,4.218c1.038,0.766,1.846,1.842,2.878,2.617
		c6.596,4.95,13.199,9.894,19.869,14.747c1.512,1.101,1.465,2.104,0.513,3.431c-4.26,5.942-8.51,11.891-12.852,17.964
		c-0.87-0.594-1.664-1.136-2.595-1.773c3.813-5.349,7.497-10.517,11.272-15.811c-7.349-5.46-14.568-10.827-21.975-16.333
		c-2.189,3.263-4.258,6.347-6.327,9.43c-5.68,8.462-11.367,16.916-17.015,25.399c-0.489,0.738-0.983,1.667-0.985,2.508
		c-0.061,15.107-0.045,30.213-0.045,45.502c9.282,0,18.472,0,28.026,0c0-0.725,0-1.542,0-2.358c0-6.311,0.048-12.621-0.035-18.926
		c-0.021-1.54,0.468-2.593,1.555-3.648c13.858-13.458,27.664-26.971,41.528-40.42c1.507-1.461,2.464-3.026,2.989-5.086
		c3.856-15.112,7.826-30.196,11.752-45.292c0.132-0.511,0.166-1.049,0.319-2.051c-17.031,8.09-33.72,16.018-50.566,24.02
		c-0.975-2.095-1.875-4.034-2.852-6.131c7.235-3.452,14.298-6.83,21.369-10.191c10.593-5.034,21.18-10.074,31.794-15.067
		c1.744-0.821,3.363-1.627,3.354-4.127c2.264,0.591,4.316,1.126,6.551,1.71c-1.773,6.898-3.494,13.646-5.243,20.387
		c-3.544,13.672-7.067,27.35-10.707,40.996c-0.374,1.404-1.233,2.858-2.27,3.878c-13.775,13.542-27.612,27.022-41.478,40.473
		c-1.099,1.065-1.562,2.125-1.532,3.65c0.09,4.595-0.076,9.194,0.088,13.786c0.06,1.697-1.116,3.842,1.258,5.08
		c0.241,0.125,0.085,1.032,0.085,1.576c0.004,7.712,0.031,15.425-0.038,23.133c-0.007,0.808-0.353,1.833-0.909,2.379
		c-33.891,33.193-67.817,66.348-101.745,99.5c-21.671,21.177-43.351,42.347-65.023,63.521c-0.368,0.361-0.708,0.754-1.276,1.362
		c47.409,0,94.482,0,141.817,0c0-20.29,0-40.568,0-60.972c8.173,0,16.088,0,24.263,0c0,20.24,0,40.516,0,60.931
		c0.893,0.115,1.55,0.2,2.324,0.3c0,2.661,0,5.285,0,8.108c-68.213,0-136.473,0-204.945,0c-0.04-0.577-0.124-1.245-0.126-1.913
		c-0.009-7.945-0.051-15.891,0.051-23.837c0.013-0.981,0.569-2.199,1.278-2.897c13.153-12.955,26.363-25.849,39.559-38.76
		c0.269-0.264,0.49-0.574,0.668-0.783c-4.953-5.072-9.834-10.072-14.498-14.85c7.828-8.088,15.621-16.137,23.681-24.468
		c5.088,5.379,9.978,10.544,14.995,15.845c15.252-14.906,29.887-29.208,44.411-43.399c-4.863-5.101-9.67-10.144-14.617-15.332
		c8.032-7.832,16.161-15.755,24.79-24.168c4.777,5.172,9.475,10.259,14.342,15.529c11.374-11.117,22.302-21.793,33.529-32.763
		C314.512,279.595,266.027,279.595,217.285,279.595z M297.804,32.123c-0.404,0.345-0.599,0.474-0.748,0.644
		c-18.673,21.321-37.321,42.665-56.057,63.932c-1.425,1.617-1.438,2.769-0.568,4.628c11.484,24.551,22.862,49.153,34.34,73.706
		c0.619,1.325,1.72,2.579,2.9,3.456c4.546,3.376,9.217,6.586,13.972,9.951c-1.347,2.467-2.487,4.831-3.872,7.044
		c-5.154,8.24-10.424,16.409-15.554,24.667c-0.688,1.108-1.14,2.566-1.149,3.865c-0.08,14.879-0.052,29.756-0.044,44.633
		c0,0.752,0.066,1.504,0.102,2.225c18.126,0,36.062,0,54.089,0c0-15.99,0.018-31.799-0.043-47.607
		c-0.004-0.841-0.549-1.749-1.026-2.51c-5.134-8.162-10.339-16.279-15.444-24.46c-1.356-2.176-2.438-4.524-3.696-6.892
		c4.806-3.438,9.398-6.637,13.876-9.988c1.117-0.837,2.154-2.037,2.744-3.295c11.735-25.12,23.387-50.279,35.108-75.405
		c0.612-1.311,0.602-2.095-0.408-3.22c-14.003-15.58-27.944-31.214-41.904-46.833C308.923,44.515,303.411,38.377,297.804,32.123z
		 M380.723,188.671c-3.024-15.76-4.841-30.973-7.533-46.366c-0.635,0.842-1.111,1.429-1.538,2.049
		c-7.621,11.087-15.178,22.22-22.903,33.232c-1.444,2.058-1.751,3.544,0.133,5.358c1.218,1.174,1.32,2.499-0.14,3.712
		c-0.533,0.442-0.926,1.049-1.394,1.569c-4.362,4.83-8.729,9.656-13.188,14.589c-0.873-0.755-1.567-1.356-2.365-2.048
		c4.885-5.446,9.693-10.802,14.503-16.162c-3.086-4.272-6.042-8.359-9.067-12.545c-9.095,6.503-18.059,12.913-27.123,19.394
		c0.459,0.801,0.814,1.478,1.223,2.122c5.484,8.673,11.019,17.318,16.426,26.04c0.724,1.167,1.16,2.718,1.167,4.095
		c0.082,14.874,0.051,29.746,0.051,44.621c0,0.834,0,1.668,0,2.57c9.916,0,19.595,0,29.43,0c0-0.993,0-1.838,0-2.682
		c0-14.797-0.021-29.592,0.045-44.388c0.004-1.142,0.391-2.445,1.019-3.396C366.683,209.554,373.979,198.723,380.723,188.671z
		 M267.261,270.999c0-1.06,0-1.899,0-2.742c0-14.955-0.036-29.91,0.062-44.864c0.009-1.513,0.542-3.208,1.34-4.503
		c5.48-8.863,11.097-17.641,16.664-26.449c0.395-0.627,0.737-1.287,1.134-1.982c-9.166-6.451-18.166-12.786-27.251-19.182
		c-3.122,4.344-6.064,8.436-9.064,12.61c4.817,5.369,9.527,10.615,14.324,15.961c-0.894,0.728-1.651,1.343-2.449,1.994
		c-5.409-6.012-10.648-11.838-15.873-17.646c0.545-0.79,0.856-1.456,1.353-1.92c1.802-1.676,1.367-3.096,0.045-4.962
		c-7.786-10.978-15.435-22.052-23.131-33.091c-0.384-0.547-0.819-1.061-1.36-1.759c-0.211,0.78-0.399,1.281-0.479,1.799
		c-1.622,10.44-3.235,20.883-4.841,31.326c-0.51,3.301-1.025,6.602-1.482,9.912c-0.138,0.987-1.219,1.667-0.289,3.029
		c7.157,10.462,14.2,21.004,21.207,31.57c0.625,0.943,1.078,2.208,1.083,3.327c0.07,15.033,0.049,30.066,0.049,45.098
		c0,0.817,0,1.633,0,2.476C248.085,270.999,257.5,270.999,267.261,270.999z"/>
	<path fill-rule="evenodd" clip-rule="evenodd" d="M315.983,519.339c9.218,0,18.22,0,27.432,0c0,11.348,0,22.597,0,34.021
		c18.916,0,37.618,0,56.438,0c0,8.917,0,17.656,0,26.647c-1.076,0-1.987,0-2.899,0c-23.04,0.004-46.08-0.062-69.117,0.085
		c-3.462,0.021-5.744-1.417-7.75-3.833c-2.869-3.454-3.984-7.657-4.035-11.937C315.873,549.396,315.983,534.464,315.983,519.339z"/>
	<path fill-rule="evenodd" clip-rule="evenodd" d="M399.923,479.989c0,9.496,0,18.591,0,27.827c-27.889,0-55.779,0-83.949,0
		c-0.121-7.642-0.854-15.146,2.905-22.012c2.068-3.776,4.954-5.991,9.871-5.936c22.723,0.253,45.449,0.118,68.174,0.12
		C397.839,479.989,398.754,479.989,399.923,479.989z"/>
	<path fill-rule="evenodd" clip-rule="evenodd" d="M310.165,508.261c-27.427,0-54.651,0-82.004,0c0-9.135,0-18.345,0-27.803
		c1.069,0,1.981,0,2.894,0c22.502-0.006,45.006,0.057,67.508-0.083c3.294-0.02,5.431,1.34,7.32,3.663
		c3.04,3.743,3.922,8.249,4.233,12.852C310.363,500.52,310.165,504.178,310.165,508.261z"/>
	<path fill-rule="evenodd" clip-rule="evenodd" d="M227.234,519.343c9.479,0,18.792,0,28.234,0c0,20.167,0,40.231,0,60.484
		c-9.321,0-18.693,0-28.234,0C227.234,559.774,227.234,539.656,227.234,519.343z"/>
	<path fill-rule="evenodd" clip-rule="evenodd" d="M309.648,579.909c-9.488,0-18.802,0-28.241,0c0-20.167,0-40.233,0-60.483
		c9.333,0,18.702,0,28.241,0C309.648,539.488,309.648,559.608,309.648,579.909z"/>
	<path fill-rule="evenodd" clip-rule="evenodd" d="M195.448,519.351c8.558,0,16.938,0,25.44,0c0,20.171,0,40.235,0,60.484
		c-8.405,0-16.843,0-25.44,0C195.448,559.763,195.448,539.645,195.448,519.351z"/>
	<path fill-rule="evenodd" clip-rule="evenodd" d="M220.843,508.869c-8.551,0-16.931,0-25.436,0c0-9.264,0-18.422,0-27.769
		c8.396,0,16.832,0,25.436,0C220.843,490.256,220.843,499.468,220.843,508.869z"/>
	<path fill-rule="evenodd" clip-rule="evenodd" d="M289.688,181.704c-1.243,0.207-2.359,0.393-3.597,0.6
		c-0.171-3.686-0.376-7.17-0.491-10.657c-0.656-19.987-1.283-39.974-1.958-59.959c-0.037-1.133-0.266-2.3-0.629-3.375
		c-3.661-10.792-7.371-21.568-11.063-32.35c-0.146-0.429-0.235-0.877-0.381-1.443c1.145-0.382,2.223-0.742,3.421-1.143
		c3.371,9.82,6.509,19.56,10.083,29.138c1.851,4.964,2.469,9.987,2.629,15.183c0.632,20.688,1.32,41.375,1.984,62.061
		C289.706,180.37,289.688,180.983,289.688,181.704z"/>
	<path fill-rule="evenodd" clip-rule="evenodd" d="M324.667,74.319c1.178,0.531,2.149,0.97,3.337,1.506
		c-2.365,5.215-4.686,10.345-7.018,15.468c-2.059,4.523-4.012,9.099-6.241,13.536c-1.31,2.603-1.693,5.191-1.587,8.065
		c0.803,21.549,1.5,43.104,2.228,64.656c0.022,0.693,0.003,1.389,0.003,2.254c-1.176,0.21-2.286,0.407-3.584,0.639
		c-0.176-3.707-0.385-7.257-0.501-10.809c-0.649-19.687-1.316-39.372-1.853-59.06c-0.051-1.824,0.457-3.801,1.204-5.485
		c4.29-9.647,8.728-19.228,13.116-28.831C324.026,75.699,324.288,75.141,324.667,74.319z"/>
</g>
</svg>
